<mxfile host="Electron" agent="Mozilla/5.0 (Windows NT 10.0; Win64; x64) AppleWebKit/537.36 (KHTML, like Gecko) draw.io/25.0.2 Chrome/128.0.6613.186 Electron/32.2.5 Safari/537.36" version="25.0.2">
  <diagram name="Страница — 1" id="sDxmI8EYtaLZzEM21KSS">
    <mxGraphModel dx="2220" dy="1496" grid="1" gridSize="10" guides="1" tooltips="1" connect="1" arrows="1" fold="1" page="1" pageScale="1" pageWidth="827" pageHeight="1169" math="0" shadow="0">
      <root>
        <mxCell id="0" />
        <mxCell id="1" parent="0" />
        <mxCell id="glgzuLFgjMCiPa6g417k-1" value="Безопасность данных" style="ellipse;aspect=fixed;strokeWidth=2;whiteSpace=wrap;" vertex="1" parent="1">
          <mxGeometry x="1036" y="400" width="179" height="179" as="geometry" />
        </mxCell>
        <mxCell id="glgzuLFgjMCiPa6g417k-2" value="Публичные данные" style="rounded=1;absoluteArcSize=1;arcSize=14;whiteSpace=wrap;strokeWidth=2;" vertex="1" parent="1">
          <mxGeometry x="1336" y="411" width="162" height="37" as="geometry" />
        </mxCell>
        <mxCell id="glgzuLFgjMCiPa6g417k-3" value="Примеры" style="rounded=1;absoluteArcSize=1;arcSize=14;whiteSpace=wrap;strokeWidth=2;" vertex="1" parent="1">
          <mxGeometry x="1515" y="463" width="88" height="37" as="geometry" />
        </mxCell>
        <mxCell id="glgzuLFgjMCiPa6g417k-4" value="Характеристики объектов в витрине продаж" style="rounded=1;absoluteArcSize=1;arcSize=14;whiteSpace=wrap;strokeWidth=2;" vertex="1" parent="1">
          <mxGeometry x="1264" y="491" width="212" height="55" as="geometry" />
        </mxCell>
        <mxCell id="glgzuLFgjMCiPa6g417k-5" value="Общая информация о жилых комплексах" style="rounded=1;absoluteArcSize=1;arcSize=14;whiteSpace=wrap;strokeWidth=2;" vertex="1" parent="1">
          <mxGeometry x="1657" y="501" width="180" height="55" as="geometry" />
        </mxCell>
        <mxCell id="glgzuLFgjMCiPa6g417k-6" value="Риски" style="rounded=1;absoluteArcSize=1;arcSize=14;whiteSpace=wrap;strokeWidth=2;" vertex="1" parent="1">
          <mxGeometry x="1544" y="334" width="63" height="37" as="geometry" />
        </mxCell>
        <mxCell id="glgzuLFgjMCiPa6g417k-7" value="Утечка данных: Незначительный" style="rounded=1;absoluteArcSize=1;arcSize=14;whiteSpace=wrap;strokeWidth=2;" vertex="1" parent="1">
          <mxGeometry x="1672" y="257" width="143" height="55" as="geometry" />
        </mxCell>
        <mxCell id="glgzuLFgjMCiPa6g417k-8" value="Данные уже открыты, утечка не влияет" style="rounded=1;absoluteArcSize=1;arcSize=14;whiteSpace=wrap;strokeWidth=2;" vertex="1" parent="1">
          <mxGeometry x="1801" y="176" width="183" height="55" as="geometry" />
        </mxCell>
        <mxCell id="glgzuLFgjMCiPa6g417k-9" value="Потеря данных: Значительный" style="rounded=1;absoluteArcSize=1;arcSize=14;whiteSpace=wrap;strokeWidth=2;" vertex="1" parent="1">
          <mxGeometry x="1628" y="404" width="137" height="55" as="geometry" />
        </mxCell>
        <mxCell id="glgzuLFgjMCiPa6g417k-10" value="Снижает продажи и доверие, но не критично" style="rounded=1;absoluteArcSize=1;arcSize=14;whiteSpace=wrap;strokeWidth=2;" vertex="1" parent="1">
          <mxGeometry x="1822" y="428" width="206" height="55" as="geometry" />
        </mxCell>
        <mxCell id="glgzuLFgjMCiPa6g417k-11" value="Искажение данных: Критический" style="rounded=1;absoluteArcSize=1;arcSize=14;whiteSpace=wrap;strokeWidth=2;" vertex="1" parent="1">
          <mxGeometry x="1486" y="213" width="168" height="55" as="geometry" />
        </mxCell>
        <mxCell id="glgzuLFgjMCiPa6g417k-12" value="Ложные данные подрывают репутацию и продажи" style="rounded=1;absoluteArcSize=1;arcSize=14;whiteSpace=wrap;strokeWidth=2;" vertex="1" parent="1">
          <mxGeometry x="1519" y="90" width="200" height="73" as="geometry" />
        </mxCell>
        <mxCell id="glgzuLFgjMCiPa6g417k-13" value="Некачественные данные: Значительный" style="rounded=1;absoluteArcSize=1;arcSize=14;whiteSpace=wrap;strokeWidth=2;" vertex="1" parent="1">
          <mxGeometry x="1282" y="276" width="209" height="55" as="geometry" />
        </mxCell>
        <mxCell id="glgzuLFgjMCiPa6g417k-14" value="Раздражают клиентов, снижают эффективность" style="rounded=1;absoluteArcSize=1;arcSize=14;whiteSpace=wrap;strokeWidth=2;" vertex="1" parent="1">
          <mxGeometry x="1247" y="170" width="205" height="55" as="geometry" />
        </mxCell>
        <mxCell id="glgzuLFgjMCiPa6g417k-15" value="Обесценивание данных: Значительный" style="rounded=1;absoluteArcSize=1;arcSize=14;whiteSpace=wrap;strokeWidth=2;" vertex="1" parent="1">
          <mxGeometry x="1681" y="334" width="200" height="55" as="geometry" />
        </mxCell>
        <mxCell id="glgzuLFgjMCiPa6g417k-16" value="Устаревание снижает интерес, но не потери" style="rounded=1;absoluteArcSize=1;arcSize=14;whiteSpace=wrap;strokeWidth=2;" vertex="1" parent="1">
          <mxGeometry x="1936" y="291" width="187" height="55" as="geometry" />
        </mxCell>
        <mxCell id="glgzuLFgjMCiPa6g417k-17" value="Внутренние данные" style="rounded=1;absoluteArcSize=1;arcSize=14;whiteSpace=wrap;strokeWidth=2;" vertex="1" parent="1">
          <mxGeometry x="1184" y="559" width="167" height="37" as="geometry" />
        </mxCell>
        <mxCell id="glgzuLFgjMCiPa6g417k-18" value="Примеры" style="rounded=1;absoluteArcSize=1;arcSize=14;whiteSpace=wrap;strokeWidth=2;" vertex="1" parent="1">
          <mxGeometry x="1058" y="599" width="88" height="37" as="geometry" />
        </mxCell>
        <mxCell id="glgzuLFgjMCiPa6g417k-19" value="Статусы бронирований" style="rounded=1;absoluteArcSize=1;arcSize=14;whiteSpace=wrap;strokeWidth=2;" vertex="1" parent="1">
          <mxGeometry x="825" y="630" width="189" height="37" as="geometry" />
        </mxCell>
        <mxCell id="glgzuLFgjMCiPa6g417k-20" value="Планы ремонта" style="rounded=1;absoluteArcSize=1;arcSize=14;whiteSpace=wrap;strokeWidth=2;" vertex="1" parent="1">
          <mxGeometry x="960" y="527" width="134" height="37" as="geometry" />
        </mxCell>
        <mxCell id="glgzuLFgjMCiPa6g417k-21" value="Агрегированные отчёты" style="rounded=1;absoluteArcSize=1;arcSize=14;whiteSpace=wrap;strokeWidth=2;" vertex="1" parent="1">
          <mxGeometry x="978" y="684" width="199" height="37" as="geometry" />
        </mxCell>
        <mxCell id="glgzuLFgjMCiPa6g417k-22" value="Риски" style="rounded=1;absoluteArcSize=1;arcSize=14;whiteSpace=wrap;strokeWidth=2;" vertex="1" parent="1">
          <mxGeometry x="1386" y="641" width="63" height="37" as="geometry" />
        </mxCell>
        <mxCell id="glgzuLFgjMCiPa6g417k-23" value="Утечка данных: Значительный" style="rounded=1;absoluteArcSize=1;arcSize=14;whiteSpace=wrap;strokeWidth=2;" vertex="1" parent="1">
          <mxGeometry x="1471" y="729" width="136" height="55" as="geometry" />
        </mxCell>
        <mxCell id="glgzuLFgjMCiPa6g417k-24" value="Дает конкурентам преимущество" style="rounded=1;absoluteArcSize=1;arcSize=14;whiteSpace=wrap;strokeWidth=2;" vertex="1" parent="1">
          <mxGeometry x="1554" y="823" width="156" height="55" as="geometry" />
        </mxCell>
        <mxCell id="glgzuLFgjMCiPa6g417k-25" value="Потеря данных: Критический" style="rounded=1;absoluteArcSize=1;arcSize=14;whiteSpace=wrap;strokeWidth=2;" vertex="1" parent="1">
          <mxGeometry x="1198" y="656" width="137" height="55" as="geometry" />
        </mxCell>
        <mxCell id="glgzuLFgjMCiPa6g417k-26" value="Нарушает операционные процессы" style="rounded=1;absoluteArcSize=1;arcSize=14;whiteSpace=wrap;strokeWidth=2;" vertex="1" parent="1">
          <mxGeometry x="1058" y="755" width="204" height="55" as="geometry" />
        </mxCell>
        <mxCell id="glgzuLFgjMCiPa6g417k-27" value="Искажение данных: Критический" style="rounded=1;absoluteArcSize=1;arcSize=14;whiteSpace=wrap;strokeWidth=2;" vertex="1" parent="1">
          <mxGeometry x="1285" y="726" width="168" height="55" as="geometry" />
        </mxCell>
        <mxCell id="glgzuLFgjMCiPa6g417k-28" value="Срывает координацию и вызывает недовольство" style="rounded=1;absoluteArcSize=1;arcSize=14;whiteSpace=wrap;strokeWidth=2;" vertex="1" parent="1">
          <mxGeometry x="1278" y="836" width="200" height="55" as="geometry" />
        </mxCell>
        <mxCell id="glgzuLFgjMCiPa6g417k-29" value="Некачественные данные: Критический" style="rounded=1;absoluteArcSize=1;arcSize=14;whiteSpace=wrap;strokeWidth=2;" vertex="1" parent="1">
          <mxGeometry x="1515" y="655" width="209" height="55" as="geometry" />
        </mxCell>
        <mxCell id="glgzuLFgjMCiPa6g417k-30" value="Несогласованность нарушает управление" style="rounded=1;absoluteArcSize=1;arcSize=14;whiteSpace=wrap;strokeWidth=2;" vertex="1" parent="1">
          <mxGeometry x="1723" y="731" width="182" height="55" as="geometry" />
        </mxCell>
        <mxCell id="glgzuLFgjMCiPa6g417k-31" value="Обесценивание данных: Значительный" style="rounded=1;absoluteArcSize=1;arcSize=14;whiteSpace=wrap;strokeWidth=2;" vertex="1" parent="1">
          <mxGeometry x="1468" y="570" width="200" height="55" as="geometry" />
        </mxCell>
        <mxCell id="glgzuLFgjMCiPa6g417k-32" value="Снижает эффективность, но не останавливает" style="rounded=1;absoluteArcSize=1;arcSize=14;whiteSpace=wrap;strokeWidth=2;" vertex="1" parent="1">
          <mxGeometry x="1730" y="588" width="210" height="55" as="geometry" />
        </mxCell>
        <mxCell id="glgzuLFgjMCiPa6g417k-33" value="Конфиденциальные данные" style="rounded=1;absoluteArcSize=1;arcSize=14;whiteSpace=wrap;strokeWidth=2;" vertex="1" parent="1">
          <mxGeometry x="760" y="551" width="168" height="55" as="geometry" />
        </mxCell>
        <mxCell id="glgzuLFgjMCiPa6g417k-34" value="Примеры" style="rounded=1;absoluteArcSize=1;arcSize=14;whiteSpace=wrap;strokeWidth=2;" vertex="1" parent="1">
          <mxGeometry x="762" y="679" width="88" height="37" as="geometry" />
        </mxCell>
        <mxCell id="glgzuLFgjMCiPa6g417k-35" value="Персональные данные клиентов" style="rounded=1;absoluteArcSize=1;arcSize=14;whiteSpace=wrap;strokeWidth=2;" vertex="1" parent="1">
          <mxGeometry x="566" y="741" width="187" height="55" as="geometry" />
        </mxCell>
        <mxCell id="glgzuLFgjMCiPa6g417k-36" value="Детали сделок" style="rounded=1;absoluteArcSize=1;arcSize=14;whiteSpace=wrap;strokeWidth=2;" vertex="1" parent="1">
          <mxGeometry x="882" y="729" width="130" height="37" as="geometry" />
        </mxCell>
        <mxCell id="glgzuLFgjMCiPa6g417k-37" value="Настройки &quot;Умного дома&quot;" style="rounded=1;absoluteArcSize=1;arcSize=14;whiteSpace=wrap;strokeWidth=2;" vertex="1" parent="1">
          <mxGeometry x="771" y="781" width="206" height="55" as="geometry" />
        </mxCell>
        <mxCell id="glgzuLFgjMCiPa6g417k-38" value="Риски" style="rounded=1;absoluteArcSize=1;arcSize=14;whiteSpace=wrap;strokeWidth=2;" vertex="1" parent="1">
          <mxGeometry x="571" y="574" width="63" height="37" as="geometry" />
        </mxCell>
        <mxCell id="glgzuLFgjMCiPa6g417k-39" value="Утечка данных: Критический" style="rounded=1;absoluteArcSize=1;arcSize=14;whiteSpace=wrap;strokeWidth=2;" vertex="1" parent="1">
          <mxGeometry x="533" y="666" width="136" height="55" as="geometry" />
        </mxCell>
        <mxCell id="glgzuLFgjMCiPa6g417k-40" value="Нарушает закон, подрывает репутацию" style="rounded=1;absoluteArcSize=1;arcSize=14;whiteSpace=wrap;strokeWidth=2;" vertex="1" parent="1">
          <mxGeometry x="357" y="753" width="183" height="55" as="geometry" />
        </mxCell>
        <mxCell id="glgzuLFgjMCiPa6g417k-41" value="Потеря данных: Критический" style="rounded=1;absoluteArcSize=1;arcSize=14;whiteSpace=wrap;strokeWidth=2;" vertex="1" parent="1">
          <mxGeometry x="393" y="480" width="137" height="55" as="geometry" />
        </mxCell>
        <mxCell id="glgzuLFgjMCiPa6g417k-42" value="Приводит к спорам и остановке процессов" style="rounded=1;absoluteArcSize=1;arcSize=14;whiteSpace=wrap;strokeWidth=2;" vertex="1" parent="1">
          <mxGeometry x="162" y="421" width="176" height="55" as="geometry" />
        </mxCell>
        <mxCell id="glgzuLFgjMCiPa6g417k-43" value="Искажение данных: Критический" style="rounded=1;absoluteArcSize=1;arcSize=14;whiteSpace=wrap;strokeWidth=2;" vertex="1" parent="1">
          <mxGeometry x="344" y="632" width="168" height="55" as="geometry" />
        </mxCell>
        <mxCell id="glgzuLFgjMCiPa6g417k-44" value="Чужие данные разрушают доверие" style="rounded=1;absoluteArcSize=1;arcSize=14;whiteSpace=wrap;strokeWidth=2;" vertex="1" parent="1">
          <mxGeometry x="91" y="700" width="212" height="55" as="geometry" />
        </mxCell>
        <mxCell id="glgzuLFgjMCiPa6g417k-45" value="Некачественные данные: Критический" style="rounded=1;absoluteArcSize=1;arcSize=14;whiteSpace=wrap;strokeWidth=2;" vertex="1" parent="1">
          <mxGeometry x="290" y="553" width="209" height="55" as="geometry" />
        </mxCell>
        <mxCell id="glgzuLFgjMCiPa6g417k-46" value="Ошибки нарушают сделки и обслуживание" style="rounded=1;absoluteArcSize=1;arcSize=14;whiteSpace=wrap;strokeWidth=2;" vertex="1" parent="1">
          <mxGeometry x="20" y="570" width="213" height="55" as="geometry" />
        </mxCell>
        <mxCell id="glgzuLFgjMCiPa6g417k-47" value="Обесценивание данных: Значительный" style="rounded=1;absoluteArcSize=1;arcSize=14;whiteSpace=wrap;strokeWidth=2;" vertex="1" parent="1">
          <mxGeometry x="545" y="481" width="200" height="55" as="geometry" />
        </mxCell>
        <mxCell id="glgzuLFgjMCiPa6g417k-48" value="Снижает качество сервисов" style="rounded=1;absoluteArcSize=1;arcSize=14;whiteSpace=wrap;strokeWidth=2;" vertex="1" parent="1">
          <mxGeometry x="431" y="395" width="154" height="55" as="geometry" />
        </mxCell>
        <mxCell id="glgzuLFgjMCiPa6g417k-49" value="Секретные данные" style="rounded=1;absoluteArcSize=1;arcSize=14;whiteSpace=wrap;strokeWidth=2;" vertex="1" parent="1">
          <mxGeometry x="969" y="354" width="160" height="37" as="geometry" />
        </mxCell>
        <mxCell id="glgzuLFgjMCiPa6g417k-50" value="Примеры" style="rounded=1;absoluteArcSize=1;arcSize=14;whiteSpace=wrap;strokeWidth=2;" vertex="1" parent="1">
          <mxGeometry x="838" y="357" width="88" height="37" as="geometry" />
        </mxCell>
        <mxCell id="glgzuLFgjMCiPa6g417k-51" value="Учетные данные пользователей" style="rounded=1;absoluteArcSize=1;arcSize=14;whiteSpace=wrap;strokeWidth=2;" vertex="1" parent="1">
          <mxGeometry x="773" y="437" width="143" height="55" as="geometry" />
        </mxCell>
        <mxCell id="glgzuLFgjMCiPa6g417k-52" value="Ключи шифрования" style="rounded=1;absoluteArcSize=1;arcSize=14;whiteSpace=wrap;strokeWidth=2;" vertex="1" parent="1">
          <mxGeometry x="935" y="417" width="167" height="37" as="geometry" />
        </mxCell>
        <mxCell id="glgzuLFgjMCiPa6g417k-53" value="Доступ к &quot;Умному дому&quot;" style="rounded=1;absoluteArcSize=1;arcSize=14;whiteSpace=wrap;strokeWidth=2;" vertex="1" parent="1">
          <mxGeometry x="593" y="332" width="196" height="55" as="geometry" />
        </mxCell>
        <mxCell id="glgzuLFgjMCiPa6g417k-54" value="Риски" style="rounded=1;absoluteArcSize=1;arcSize=14;whiteSpace=wrap;strokeWidth=2;" vertex="1" parent="1">
          <mxGeometry x="947" y="246" width="63" height="37" as="geometry" />
        </mxCell>
        <mxCell id="glgzuLFgjMCiPa6g417k-55" value="Утечка данных: Критический" style="rounded=1;absoluteArcSize=1;arcSize=14;whiteSpace=wrap;strokeWidth=2;" vertex="1" parent="1">
          <mxGeometry x="1070" y="192" width="136" height="55" as="geometry" />
        </mxCell>
        <mxCell id="glgzuLFgjMCiPa6g417k-56" value="Дает полный доступ к системам" style="rounded=1;absoluteArcSize=1;arcSize=14;whiteSpace=wrap;strokeWidth=2;" vertex="1" parent="1">
          <mxGeometry x="1118" y="91" width="183" height="55" as="geometry" />
        </mxCell>
        <mxCell id="glgzuLFgjMCiPa6g417k-57" value="Потеря данных: Критический" style="rounded=1;absoluteArcSize=1;arcSize=14;whiteSpace=wrap;strokeWidth=2;" vertex="1" parent="1">
          <mxGeometry x="930" y="126" width="137" height="55" as="geometry" />
        </mxCell>
        <mxCell id="glgzuLFgjMCiPa6g417k-58" value="Останавливает интеграции и системы" style="rounded=1;absoluteArcSize=1;arcSize=14;whiteSpace=wrap;strokeWidth=2;" vertex="1" parent="1">
          <mxGeometry x="864" y="20" width="187" height="55" as="geometry" />
        </mxCell>
        <mxCell id="glgzuLFgjMCiPa6g417k-59" value="Искажение данных: Критический" style="rounded=1;absoluteArcSize=1;arcSize=14;whiteSpace=wrap;strokeWidth=2;" vertex="1" parent="1">
          <mxGeometry x="727" y="261" width="168" height="55" as="geometry" />
        </mxCell>
        <mxCell id="glgzuLFgjMCiPa6g417k-60" value="Утрата контроля над инфраструктурой" style="rounded=1;absoluteArcSize=1;arcSize=14;whiteSpace=wrap;strokeWidth=2;" vertex="1" parent="1">
          <mxGeometry x="493" y="239" width="174" height="55" as="geometry" />
        </mxCell>
        <mxCell id="glgzuLFgjMCiPa6g417k-61" value="Некачественные данные: Значительный" style="rounded=1;absoluteArcSize=1;arcSize=14;whiteSpace=wrap;strokeWidth=2;" vertex="1" parent="1">
          <mxGeometry x="701" y="175" width="209" height="55" as="geometry" />
        </mxCell>
        <mxCell id="glgzuLFgjMCiPa6g417k-62" value="Сбои доступа, но не разрушение" style="rounded=1;absoluteArcSize=1;arcSize=14;whiteSpace=wrap;strokeWidth=2;" vertex="1" parent="1">
          <mxGeometry x="607" y="86" width="170" height="55" as="geometry" />
        </mxCell>
        <mxCell id="glgzuLFgjMCiPa6g417k-63" value="Обесценивание данных: Критический" style="rounded=1;absoluteArcSize=1;arcSize=14;whiteSpace=wrap;strokeWidth=2;" vertex="1" parent="1">
          <mxGeometry x="1056" y="285" width="200" height="55" as="geometry" />
        </mxCell>
        <mxCell id="glgzuLFgjMCiPa6g417k-64" value="Блокирует работу систем" style="rounded=1;absoluteArcSize=1;arcSize=14;whiteSpace=wrap;strokeWidth=2;" vertex="1" parent="1">
          <mxGeometry x="1150" y="365" width="209" height="37" as="geometry" />
        </mxCell>
        <mxCell id="glgzuLFgjMCiPa6g417k-65" style="endArrow=none;rounded=0;" edge="1" parent="1" source="glgzuLFgjMCiPa6g417k-1" target="glgzuLFgjMCiPa6g417k-2">
          <mxGeometry relative="1" as="geometry" />
        </mxCell>
        <mxCell id="glgzuLFgjMCiPa6g417k-66" style="endArrow=none;rounded=0;" edge="1" parent="1" source="glgzuLFgjMCiPa6g417k-1" target="glgzuLFgjMCiPa6g417k-17">
          <mxGeometry relative="1" as="geometry" />
        </mxCell>
        <mxCell id="glgzuLFgjMCiPa6g417k-67" style="endArrow=none;rounded=0;" edge="1" parent="1" source="glgzuLFgjMCiPa6g417k-1" target="glgzuLFgjMCiPa6g417k-33">
          <mxGeometry relative="1" as="geometry" />
        </mxCell>
        <mxCell id="glgzuLFgjMCiPa6g417k-68" style="endArrow=none;rounded=0;" edge="1" parent="1" source="glgzuLFgjMCiPa6g417k-1" target="glgzuLFgjMCiPa6g417k-49">
          <mxGeometry relative="1" as="geometry" />
        </mxCell>
        <mxCell id="glgzuLFgjMCiPa6g417k-69" style="endArrow=none;rounded=0;" edge="1" parent="1" source="glgzuLFgjMCiPa6g417k-2" target="glgzuLFgjMCiPa6g417k-3">
          <mxGeometry relative="1" as="geometry" />
        </mxCell>
        <mxCell id="glgzuLFgjMCiPa6g417k-70" style="endArrow=none;rounded=0;" edge="1" parent="1" source="glgzuLFgjMCiPa6g417k-2" target="glgzuLFgjMCiPa6g417k-6">
          <mxGeometry relative="1" as="geometry" />
        </mxCell>
        <mxCell id="glgzuLFgjMCiPa6g417k-71" style="endArrow=none;rounded=0;" edge="1" parent="1" source="glgzuLFgjMCiPa6g417k-3" target="glgzuLFgjMCiPa6g417k-4">
          <mxGeometry relative="1" as="geometry" />
        </mxCell>
        <mxCell id="glgzuLFgjMCiPa6g417k-72" style="endArrow=none;rounded=0;" edge="1" parent="1" source="glgzuLFgjMCiPa6g417k-3" target="glgzuLFgjMCiPa6g417k-5">
          <mxGeometry relative="1" as="geometry" />
        </mxCell>
        <mxCell id="glgzuLFgjMCiPa6g417k-73" style="endArrow=none;rounded=0;" edge="1" parent="1" source="glgzuLFgjMCiPa6g417k-6" target="glgzuLFgjMCiPa6g417k-7">
          <mxGeometry relative="1" as="geometry" />
        </mxCell>
        <mxCell id="glgzuLFgjMCiPa6g417k-74" style="endArrow=none;rounded=0;" edge="1" parent="1" source="glgzuLFgjMCiPa6g417k-6" target="glgzuLFgjMCiPa6g417k-9">
          <mxGeometry relative="1" as="geometry" />
        </mxCell>
        <mxCell id="glgzuLFgjMCiPa6g417k-75" style="endArrow=none;rounded=0;" edge="1" parent="1" source="glgzuLFgjMCiPa6g417k-6" target="glgzuLFgjMCiPa6g417k-11">
          <mxGeometry relative="1" as="geometry" />
        </mxCell>
        <mxCell id="glgzuLFgjMCiPa6g417k-76" style="endArrow=none;rounded=0;" edge="1" parent="1" source="glgzuLFgjMCiPa6g417k-6" target="glgzuLFgjMCiPa6g417k-13">
          <mxGeometry relative="1" as="geometry" />
        </mxCell>
        <mxCell id="glgzuLFgjMCiPa6g417k-77" style="endArrow=none;rounded=0;" edge="1" parent="1" source="glgzuLFgjMCiPa6g417k-6" target="glgzuLFgjMCiPa6g417k-15">
          <mxGeometry relative="1" as="geometry" />
        </mxCell>
        <mxCell id="glgzuLFgjMCiPa6g417k-78" style="endArrow=none;rounded=0;" edge="1" parent="1" source="glgzuLFgjMCiPa6g417k-7" target="glgzuLFgjMCiPa6g417k-8">
          <mxGeometry relative="1" as="geometry" />
        </mxCell>
        <mxCell id="glgzuLFgjMCiPa6g417k-79" style="endArrow=none;rounded=0;" edge="1" parent="1" source="glgzuLFgjMCiPa6g417k-9" target="glgzuLFgjMCiPa6g417k-10">
          <mxGeometry relative="1" as="geometry" />
        </mxCell>
        <mxCell id="glgzuLFgjMCiPa6g417k-80" style="endArrow=none;rounded=0;" edge="1" parent="1" source="glgzuLFgjMCiPa6g417k-11" target="glgzuLFgjMCiPa6g417k-12">
          <mxGeometry relative="1" as="geometry" />
        </mxCell>
        <mxCell id="glgzuLFgjMCiPa6g417k-81" style="endArrow=none;rounded=0;" edge="1" parent="1" source="glgzuLFgjMCiPa6g417k-13" target="glgzuLFgjMCiPa6g417k-14">
          <mxGeometry relative="1" as="geometry" />
        </mxCell>
        <mxCell id="glgzuLFgjMCiPa6g417k-82" style="endArrow=none;rounded=0;" edge="1" parent="1" source="glgzuLFgjMCiPa6g417k-15" target="glgzuLFgjMCiPa6g417k-16">
          <mxGeometry relative="1" as="geometry" />
        </mxCell>
        <mxCell id="glgzuLFgjMCiPa6g417k-83" style="endArrow=none;rounded=0;" edge="1" parent="1" source="glgzuLFgjMCiPa6g417k-17" target="glgzuLFgjMCiPa6g417k-18">
          <mxGeometry relative="1" as="geometry" />
        </mxCell>
        <mxCell id="glgzuLFgjMCiPa6g417k-84" style="endArrow=none;rounded=0;" edge="1" parent="1" source="glgzuLFgjMCiPa6g417k-17" target="glgzuLFgjMCiPa6g417k-22">
          <mxGeometry relative="1" as="geometry" />
        </mxCell>
        <mxCell id="glgzuLFgjMCiPa6g417k-85" style="endArrow=none;rounded=0;" edge="1" parent="1" source="glgzuLFgjMCiPa6g417k-18" target="glgzuLFgjMCiPa6g417k-19">
          <mxGeometry relative="1" as="geometry" />
        </mxCell>
        <mxCell id="glgzuLFgjMCiPa6g417k-86" style="endArrow=none;rounded=0;" edge="1" parent="1" source="glgzuLFgjMCiPa6g417k-18" target="glgzuLFgjMCiPa6g417k-20">
          <mxGeometry relative="1" as="geometry" />
        </mxCell>
        <mxCell id="glgzuLFgjMCiPa6g417k-87" style="endArrow=none;rounded=0;" edge="1" parent="1" source="glgzuLFgjMCiPa6g417k-18" target="glgzuLFgjMCiPa6g417k-21">
          <mxGeometry relative="1" as="geometry" />
        </mxCell>
        <mxCell id="glgzuLFgjMCiPa6g417k-88" style="endArrow=none;rounded=0;" edge="1" parent="1" source="glgzuLFgjMCiPa6g417k-22" target="glgzuLFgjMCiPa6g417k-23">
          <mxGeometry relative="1" as="geometry" />
        </mxCell>
        <mxCell id="glgzuLFgjMCiPa6g417k-89" style="endArrow=none;rounded=0;" edge="1" parent="1" source="glgzuLFgjMCiPa6g417k-22" target="glgzuLFgjMCiPa6g417k-25">
          <mxGeometry relative="1" as="geometry" />
        </mxCell>
        <mxCell id="glgzuLFgjMCiPa6g417k-90" style="endArrow=none;rounded=0;" edge="1" parent="1" source="glgzuLFgjMCiPa6g417k-22" target="glgzuLFgjMCiPa6g417k-27">
          <mxGeometry relative="1" as="geometry" />
        </mxCell>
        <mxCell id="glgzuLFgjMCiPa6g417k-91" style="endArrow=none;rounded=0;" edge="1" parent="1" source="glgzuLFgjMCiPa6g417k-22" target="glgzuLFgjMCiPa6g417k-29">
          <mxGeometry relative="1" as="geometry" />
        </mxCell>
        <mxCell id="glgzuLFgjMCiPa6g417k-92" style="endArrow=none;rounded=0;" edge="1" parent="1" source="glgzuLFgjMCiPa6g417k-22" target="glgzuLFgjMCiPa6g417k-31">
          <mxGeometry relative="1" as="geometry" />
        </mxCell>
        <mxCell id="glgzuLFgjMCiPa6g417k-93" style="endArrow=none;rounded=0;" edge="1" parent="1" source="glgzuLFgjMCiPa6g417k-23" target="glgzuLFgjMCiPa6g417k-24">
          <mxGeometry relative="1" as="geometry" />
        </mxCell>
        <mxCell id="glgzuLFgjMCiPa6g417k-94" style="endArrow=none;rounded=0;" edge="1" parent="1" source="glgzuLFgjMCiPa6g417k-25" target="glgzuLFgjMCiPa6g417k-26">
          <mxGeometry relative="1" as="geometry" />
        </mxCell>
        <mxCell id="glgzuLFgjMCiPa6g417k-95" style="endArrow=none;rounded=0;" edge="1" parent="1" source="glgzuLFgjMCiPa6g417k-27" target="glgzuLFgjMCiPa6g417k-28">
          <mxGeometry relative="1" as="geometry" />
        </mxCell>
        <mxCell id="glgzuLFgjMCiPa6g417k-96" style="endArrow=none;rounded=0;" edge="1" parent="1" source="glgzuLFgjMCiPa6g417k-29" target="glgzuLFgjMCiPa6g417k-30">
          <mxGeometry relative="1" as="geometry" />
        </mxCell>
        <mxCell id="glgzuLFgjMCiPa6g417k-97" style="endArrow=none;rounded=0;" edge="1" parent="1" source="glgzuLFgjMCiPa6g417k-31" target="glgzuLFgjMCiPa6g417k-32">
          <mxGeometry relative="1" as="geometry" />
        </mxCell>
        <mxCell id="glgzuLFgjMCiPa6g417k-98" style="endArrow=none;rounded=0;" edge="1" parent="1" source="glgzuLFgjMCiPa6g417k-33" target="glgzuLFgjMCiPa6g417k-34">
          <mxGeometry relative="1" as="geometry" />
        </mxCell>
        <mxCell id="glgzuLFgjMCiPa6g417k-99" style="endArrow=none;rounded=0;" edge="1" parent="1" source="glgzuLFgjMCiPa6g417k-33" target="glgzuLFgjMCiPa6g417k-38">
          <mxGeometry relative="1" as="geometry" />
        </mxCell>
        <mxCell id="glgzuLFgjMCiPa6g417k-100" style="endArrow=none;rounded=0;" edge="1" parent="1" source="glgzuLFgjMCiPa6g417k-34" target="glgzuLFgjMCiPa6g417k-35">
          <mxGeometry relative="1" as="geometry" />
        </mxCell>
        <mxCell id="glgzuLFgjMCiPa6g417k-101" style="endArrow=none;rounded=0;" edge="1" parent="1" source="glgzuLFgjMCiPa6g417k-34" target="glgzuLFgjMCiPa6g417k-36">
          <mxGeometry relative="1" as="geometry" />
        </mxCell>
        <mxCell id="glgzuLFgjMCiPa6g417k-102" style="endArrow=none;rounded=0;" edge="1" parent="1" source="glgzuLFgjMCiPa6g417k-34" target="glgzuLFgjMCiPa6g417k-37">
          <mxGeometry relative="1" as="geometry" />
        </mxCell>
        <mxCell id="glgzuLFgjMCiPa6g417k-103" style="endArrow=none;rounded=0;" edge="1" parent="1" source="glgzuLFgjMCiPa6g417k-38" target="glgzuLFgjMCiPa6g417k-39">
          <mxGeometry relative="1" as="geometry" />
        </mxCell>
        <mxCell id="glgzuLFgjMCiPa6g417k-104" style="endArrow=none;rounded=0;" edge="1" parent="1" source="glgzuLFgjMCiPa6g417k-38" target="glgzuLFgjMCiPa6g417k-41">
          <mxGeometry relative="1" as="geometry" />
        </mxCell>
        <mxCell id="glgzuLFgjMCiPa6g417k-105" style="endArrow=none;rounded=0;" edge="1" parent="1" source="glgzuLFgjMCiPa6g417k-38" target="glgzuLFgjMCiPa6g417k-43">
          <mxGeometry relative="1" as="geometry" />
        </mxCell>
        <mxCell id="glgzuLFgjMCiPa6g417k-106" style="endArrow=none;rounded=0;" edge="1" parent="1" source="glgzuLFgjMCiPa6g417k-38" target="glgzuLFgjMCiPa6g417k-45">
          <mxGeometry relative="1" as="geometry" />
        </mxCell>
        <mxCell id="glgzuLFgjMCiPa6g417k-107" style="endArrow=none;rounded=0;" edge="1" parent="1" source="glgzuLFgjMCiPa6g417k-38" target="glgzuLFgjMCiPa6g417k-47">
          <mxGeometry relative="1" as="geometry" />
        </mxCell>
        <mxCell id="glgzuLFgjMCiPa6g417k-108" style="endArrow=none;rounded=0;" edge="1" parent="1" source="glgzuLFgjMCiPa6g417k-39" target="glgzuLFgjMCiPa6g417k-40">
          <mxGeometry relative="1" as="geometry" />
        </mxCell>
        <mxCell id="glgzuLFgjMCiPa6g417k-109" style="endArrow=none;rounded=0;" edge="1" parent="1" source="glgzuLFgjMCiPa6g417k-41" target="glgzuLFgjMCiPa6g417k-42">
          <mxGeometry relative="1" as="geometry" />
        </mxCell>
        <mxCell id="glgzuLFgjMCiPa6g417k-110" style="endArrow=none;rounded=0;" edge="1" parent="1" source="glgzuLFgjMCiPa6g417k-43" target="glgzuLFgjMCiPa6g417k-44">
          <mxGeometry relative="1" as="geometry" />
        </mxCell>
        <mxCell id="glgzuLFgjMCiPa6g417k-111" style="endArrow=none;rounded=0;" edge="1" parent="1" source="glgzuLFgjMCiPa6g417k-45" target="glgzuLFgjMCiPa6g417k-46">
          <mxGeometry relative="1" as="geometry" />
        </mxCell>
        <mxCell id="glgzuLFgjMCiPa6g417k-112" style="endArrow=none;rounded=0;" edge="1" parent="1" source="glgzuLFgjMCiPa6g417k-47" target="glgzuLFgjMCiPa6g417k-48">
          <mxGeometry relative="1" as="geometry" />
        </mxCell>
        <mxCell id="glgzuLFgjMCiPa6g417k-113" style="endArrow=none;rounded=0;" edge="1" parent="1" source="glgzuLFgjMCiPa6g417k-49" target="glgzuLFgjMCiPa6g417k-50">
          <mxGeometry relative="1" as="geometry" />
        </mxCell>
        <mxCell id="glgzuLFgjMCiPa6g417k-114" style="endArrow=none;rounded=0;" edge="1" parent="1" source="glgzuLFgjMCiPa6g417k-49" target="glgzuLFgjMCiPa6g417k-54">
          <mxGeometry relative="1" as="geometry" />
        </mxCell>
        <mxCell id="glgzuLFgjMCiPa6g417k-115" style="endArrow=none;rounded=0;" edge="1" parent="1" source="glgzuLFgjMCiPa6g417k-50" target="glgzuLFgjMCiPa6g417k-51">
          <mxGeometry relative="1" as="geometry" />
        </mxCell>
        <mxCell id="glgzuLFgjMCiPa6g417k-116" style="endArrow=none;rounded=0;" edge="1" parent="1" source="glgzuLFgjMCiPa6g417k-50" target="glgzuLFgjMCiPa6g417k-52">
          <mxGeometry relative="1" as="geometry" />
        </mxCell>
        <mxCell id="glgzuLFgjMCiPa6g417k-117" style="endArrow=none;rounded=0;" edge="1" parent="1" source="glgzuLFgjMCiPa6g417k-50" target="glgzuLFgjMCiPa6g417k-53">
          <mxGeometry relative="1" as="geometry" />
        </mxCell>
        <mxCell id="glgzuLFgjMCiPa6g417k-118" style="endArrow=none;rounded=0;" edge="1" parent="1" source="glgzuLFgjMCiPa6g417k-54" target="glgzuLFgjMCiPa6g417k-55">
          <mxGeometry relative="1" as="geometry" />
        </mxCell>
        <mxCell id="glgzuLFgjMCiPa6g417k-119" style="endArrow=none;rounded=0;" edge="1" parent="1" source="glgzuLFgjMCiPa6g417k-54" target="glgzuLFgjMCiPa6g417k-57">
          <mxGeometry relative="1" as="geometry" />
        </mxCell>
        <mxCell id="glgzuLFgjMCiPa6g417k-120" style="endArrow=none;rounded=0;" edge="1" parent="1" source="glgzuLFgjMCiPa6g417k-54" target="glgzuLFgjMCiPa6g417k-59">
          <mxGeometry relative="1" as="geometry" />
        </mxCell>
        <mxCell id="glgzuLFgjMCiPa6g417k-121" style="endArrow=none;rounded=0;" edge="1" parent="1" source="glgzuLFgjMCiPa6g417k-54" target="glgzuLFgjMCiPa6g417k-61">
          <mxGeometry relative="1" as="geometry" />
        </mxCell>
        <mxCell id="glgzuLFgjMCiPa6g417k-122" style="endArrow=none;rounded=0;" edge="1" parent="1" source="glgzuLFgjMCiPa6g417k-54" target="glgzuLFgjMCiPa6g417k-63">
          <mxGeometry relative="1" as="geometry" />
        </mxCell>
        <mxCell id="glgzuLFgjMCiPa6g417k-123" style="endArrow=none;rounded=0;" edge="1" parent="1" source="glgzuLFgjMCiPa6g417k-55" target="glgzuLFgjMCiPa6g417k-56">
          <mxGeometry relative="1" as="geometry" />
        </mxCell>
        <mxCell id="glgzuLFgjMCiPa6g417k-124" style="endArrow=none;rounded=0;" edge="1" parent="1" source="glgzuLFgjMCiPa6g417k-57" target="glgzuLFgjMCiPa6g417k-58">
          <mxGeometry relative="1" as="geometry" />
        </mxCell>
        <mxCell id="glgzuLFgjMCiPa6g417k-125" style="endArrow=none;rounded=0;" edge="1" parent="1" source="glgzuLFgjMCiPa6g417k-59" target="glgzuLFgjMCiPa6g417k-60">
          <mxGeometry relative="1" as="geometry" />
        </mxCell>
        <mxCell id="glgzuLFgjMCiPa6g417k-126" style="endArrow=none;rounded=0;" edge="1" parent="1" source="glgzuLFgjMCiPa6g417k-61" target="glgzuLFgjMCiPa6g417k-62">
          <mxGeometry relative="1" as="geometry" />
        </mxCell>
        <mxCell id="glgzuLFgjMCiPa6g417k-127" style="endArrow=none;rounded=0;" edge="1" parent="1" source="glgzuLFgjMCiPa6g417k-63" target="glgzuLFgjMCiPa6g417k-64">
          <mxGeometry relative="1" as="geometry" />
        </mxCell>
      </root>
    </mxGraphModel>
  </diagram>
</mxfile>
